# Blender 4.0.2
# www.blender.org
mtllib TTT_Corner.mtl
o Cube.001
v 0.500000 -0.450000 0.500000
v 0.500000 -0.450000 -0.500000
v 0.500000 -0.500000 0.500000
v 0.500000 -0.500000 -0.500000
v 0.450000 -0.500000 0.500000
v 0.450000 -0.500000 -0.500000
v 0.500000 -0.450000 0.500000
v 0.450000 -0.500000 0.500000
v 0.450000 -0.500000 -0.500000
v 0.500000 -0.450000 -0.500000
v -0.500000 -0.450000 -0.500000
v 0.500000 -0.450000 -0.500000
v -0.500000 -0.500000 -0.450000
v 0.500000 -0.500000 -0.450000
v -0.500000 -0.500000 -0.500000
v 0.500000 -0.500000 -0.500000
v -0.500000 -0.500000 -0.450000
v -0.500000 -0.450000 -0.500000
v 0.500000 -0.450000 -0.500000
v 0.500000 -0.500000 -0.450000
v 0.450000 -0.500000 -0.500000
v 0.450000 0.500000 -0.500000
v 0.500000 -0.500000 -0.450000
v 0.500000 0.500000 -0.450000
v 0.500000 -0.500000 -0.500000
v 0.500000 0.500000 -0.500000
v 0.500000 -0.500000 -0.450000
v 0.450000 -0.500000 -0.500000
v 0.450000 0.500000 -0.500000
v 0.500000 0.500000 -0.450000
vn -0.0000 -0.0000 -1.0000
vn -0.0000 -1.0000 -0.0000
vn 1.0000 -0.0000 -0.0000
vn -0.7071 0.7071 -0.0000
vn -0.0000 -0.0000 1.0000
vn -0.0000 0.7071 0.7071
vn -1.0000 -0.0000 -0.0000
vn -0.0000 1.0000 -0.0000
vn -0.7071 -0.0000 0.7071
vt 0.375000 0.500000
vt 0.625000 0.500000
vt 0.875000 0.750000
vt 0.625000 0.750000
vt 0.375000 0.750000
vt 0.625000 1.000000
vt 0.375000 1.000000
vt 0.375000 0.000000
vt 0.625000 0.000000
vt 0.125000 0.750000
vt 0.375000 0.250000
vt 0.625000 0.250000
vt 0.875000 0.500000
vt 0.125000 0.500000
s 0
f 8/1/1 9/2/1 6/2/1 5/1/1
f 6/2/1 9/2/1 10/3/1 2/3/1 4/4/1
f 5/1/2 6/2/2 4/4/2 3/5/2
f 3/5/3 4/4/3 2/6/3 1/7/3
f 1/8/1 2/9/1 10/9/1 7/8/1
f 9/2/4 8/1/4 7/8/4 10/9/4
f 7/10/5 8/1/5 5/1/5 3/5/5 1/10/5
f 13/5/1 14/4/1 20/4/1 17/5/1
f 11/11/1 12/12/1 16/2/1 15/1/1
f 15/1/2 16/2/2 14/4/2 13/5/2
f 16/2/3 12/13/3 19/13/3 20/4/3 14/4/3
f 18/11/1 19/12/1 12/12/1 11/11/1
f 17/8/6 20/9/6 19/12/6 18/11/6
f 11/14/7 15/1/7 13/5/7 17/5/7 18/14/7
f 23/5/1 24/4/1 30/4/1 27/5/1
f 21/11/1 22/12/1 26/2/1 25/1/1
f 25/1/3 26/2/3 24/4/3 23/5/3
f 26/2/8 22/13/8 29/13/8 30/4/8 24/4/8
f 28/11/1 29/12/1 22/12/1 21/11/1
f 27/8/9 30/9/9 29/12/9 28/11/9
f 21/14/2 25/1/2 23/5/2 27/5/2 28/14/2
