# Blender 4.0.2
# www.blender.org
mtllib TTT_Center.mtl
o Cube
v -0.500000 -0.450000 -0.500000
v 0.500000 -0.450000 -0.500000
v -0.500000 -0.500000 -0.450000
v 0.500000 -0.500000 -0.450000
v -0.500000 -0.500000 -0.500000
v 0.500000 -0.500000 -0.500000
v -0.500000 -0.500000 -0.450000
v -0.500000 -0.450000 -0.500000
v 0.500000 -0.450000 -0.500000
v 0.500000 -0.500000 -0.450000
v 0.500000 -0.450000 0.500000
v 0.500000 -0.450000 -0.500000
v 0.500000 -0.500000 0.500000
v 0.500000 -0.500000 -0.500000
v 0.450000 -0.500000 0.500000
v 0.450000 -0.500000 -0.500000
v 0.500000 -0.450000 0.500000
v 0.450000 -0.500000 0.500000
v 0.450000 -0.500000 -0.500000
v 0.500000 -0.450000 -0.500000
v -0.500000 -0.450000 -0.500000
v -0.500000 -0.450000 0.500000
v -0.500000 -0.500000 -0.500000
v -0.500000 -0.500000 0.500000
v -0.450000 -0.500000 -0.500000
v -0.450000 -0.500000 0.500000
v -0.500000 -0.450000 -0.500000
v -0.450000 -0.500000 -0.500000
v -0.450000 -0.500000 0.500000
v -0.500000 -0.450000 0.500000
v 0.500000 -0.450000 0.500000
v -0.500000 -0.450000 0.500000
v 0.500000 -0.500000 0.450000
v -0.500000 -0.500000 0.450000
v 0.500000 -0.500000 0.500000
v -0.500000 -0.500000 0.500000
v 0.500000 -0.500000 0.450000
v 0.500000 -0.450000 0.500000
v -0.500000 -0.450000 0.500000
v -0.500000 -0.500000 0.450000
v -0.500000 -0.500000 -0.450000
v -0.500000 0.500000 -0.450000
v -0.450000 -0.500000 -0.500000
v -0.450000 0.500000 -0.500000
v -0.500000 -0.500000 -0.500000
v -0.500000 0.500000 -0.500000
v -0.450000 -0.500000 -0.500000
v -0.500000 -0.500000 -0.450000
v -0.500000 0.500000 -0.450000
v -0.450000 0.500000 -0.500000
v 0.450000 -0.500000 -0.500000
v 0.450000 0.500000 -0.500000
v 0.500000 -0.500000 -0.450000
v 0.500000 0.500000 -0.450000
v 0.500000 -0.500000 -0.500000
v 0.500000 0.500000 -0.500000
v 0.500000 -0.500000 -0.450000
v 0.450000 -0.500000 -0.500000
v 0.450000 0.500000 -0.500000
v 0.500000 0.500000 -0.450000
v 0.500000 -0.500000 0.450000
v 0.500000 0.500000 0.450000
v 0.450000 -0.500000 0.500000
v 0.450000 0.500000 0.500000
v 0.500000 -0.500000 0.500000
v 0.500000 0.500000 0.500000
v 0.450000 -0.500000 0.500000
v 0.500000 -0.500000 0.450000
v 0.500000 0.500000 0.450000
v 0.450000 0.500000 0.500000
v -0.450000 -0.500000 0.500000
v -0.450000 0.500000 0.500000
v -0.500000 -0.500000 0.450000
v -0.500000 0.500000 0.450000
v -0.500000 -0.500000 0.500000
v -0.500000 0.500000 0.500000
v -0.500000 -0.500000 0.450000
v -0.450000 -0.500000 0.500000
v -0.450000 0.500000 0.500000
v -0.500000 0.500000 0.450000
v 0.500000 0.450000 -0.500000
v -0.500000 0.450000 -0.500000
v 0.500000 0.500000 -0.450000
v -0.500000 0.500000 -0.450000
v 0.500000 0.500000 -0.500000
v -0.500000 0.500000 -0.500000
v 0.500000 0.500000 -0.450000
v 0.500000 0.450000 -0.500000
v -0.500000 0.450000 -0.500000
v -0.500000 0.500000 -0.450000
v -0.500000 0.450000 0.500000
v -0.500000 0.450000 -0.500000
v -0.500000 0.500000 0.500000
v -0.500000 0.500000 -0.500000
v -0.450000 0.500000 0.500000
v -0.450000 0.500000 -0.500000
v -0.500000 0.450000 0.500000
v -0.450000 0.500000 0.500000
v -0.450000 0.500000 -0.500000
v -0.500000 0.450000 -0.500000
v 0.500000 0.450000 -0.500000
v 0.500000 0.450000 0.500000
v 0.500000 0.500000 -0.500000
v 0.500000 0.500000 0.500000
v 0.450000 0.500000 -0.500000
v 0.450000 0.500000 0.500000
v 0.500000 0.450000 -0.500000
v 0.450000 0.500000 -0.500000
v 0.450000 0.500000 0.500000
v 0.500000 0.450000 0.500000
v -0.500000 0.450000 0.500000
v 0.500000 0.450000 0.500000
v -0.500000 0.500000 0.450000
v 0.500000 0.500000 0.450000
v -0.500000 0.500000 0.500000
v 0.500000 0.500000 0.500000
v -0.500000 0.500000 0.450000
v -0.500000 0.450000 0.500000
v 0.500000 0.450000 0.500000
v 0.500000 0.500000 0.450000
vn 1.0000 -0.0000 -0.0000
vn -0.0000 -0.0000 -1.0000
vn -0.0000 -1.0000 -0.0000
vn -0.0000 0.7071 0.7071
vn -1.0000 -0.0000 -0.0000
vn -0.7071 0.7071 -0.0000
vn -0.0000 -0.0000 1.0000
vn 0.7071 0.7071 -0.0000
vn -0.0000 0.7071 -0.7071
vn -0.0000 1.0000 -0.0000
vn 0.7071 -0.0000 0.7071
vn -0.7071 -0.0000 0.7071
vn -0.7071 -0.0000 -0.7071
vn 0.7071 -0.0000 -0.7071
vn -0.0000 -0.7071 0.7071
vn 0.7071 -0.7071 -0.0000
vn -0.7071 -0.7071 -0.0000
vn -0.0000 -0.7071 -0.7071
vt 0.375000 0.750000
vt 0.625000 0.750000
vt 0.375000 0.250000
vt 0.625000 0.250000
vt 0.625000 0.500000
vt 0.375000 0.500000
vt 0.875000 0.500000
vt 0.375000 0.000000
vt 0.625000 0.000000
vt 0.125000 0.500000
vt 0.875000 0.750000
vt 0.625000 1.000000
vt 0.375000 1.000000
vt 0.125000 0.750000
s 0
f 3/1/1 4/2/1 10/2/1 7/1/1
f 1/3/2 2/4/2 6/5/2 5/6/2
f 5/6/3 6/5/3 4/2/3 3/1/3
f 6/5/1 2/7/1 9/7/1 10/2/1 4/2/1
f 8/3/1 9/4/1 2/4/1 1/3/1
f 7/8/4 10/9/4 9/4/4 8/3/4
f 1/10/5 5/6/5 3/1/5 7/1/5 8/10/5
f 18/6/1 19/5/1 16/5/1 15/6/1
f 16/5/2 19/5/2 20/11/2 12/11/2 14/2/2
f 15/6/3 16/5/3 14/2/3 13/1/3
f 13/1/1 14/2/1 12/12/1 11/13/1
f 11/8/1 12/9/1 20/9/1 17/8/1
f 19/5/6 18/6/6 17/8/6 20/9/6
f 17/14/7 18/6/7 15/6/7 13/1/7 11/14/7
f 28/6/1 29/5/1 26/5/1 25/6/1
f 26/5/7 29/5/7 30/11/7 22/11/7 24/2/7
f 25/6/3 26/5/3 24/2/3 23/1/3
f 23/1/5 24/2/5 22/12/5 21/13/5
f 21/8/1 22/9/1 30/9/1 27/8/1
f 29/5/8 28/6/8 27/8/8 30/9/8
f 27/14/2 28/6/2 25/6/2 23/1/2 21/14/2
f 33/1/1 34/2/1 40/2/1 37/1/1
f 31/3/7 32/4/7 36/5/7 35/6/7
f 35/6/3 36/5/3 34/2/3 33/1/3
f 36/5/5 32/7/5 39/7/5 40/2/5 34/2/5
f 38/3/1 39/4/1 32/4/1 31/3/1
f 37/8/9 40/9/9 39/4/9 38/3/9
f 31/10/1 35/6/1 33/1/1 37/1/1 38/10/1
f 43/1/1 44/2/1 50/2/1 47/1/1
f 41/3/5 42/4/5 46/5/5 45/6/5
f 45/6/2 46/5/2 44/2/2 43/1/2
f 46/5/10 42/7/10 49/7/10 50/2/10 44/2/10
f 48/3/1 49/4/1 42/4/1 41/3/1
f 47/8/11 50/9/11 49/4/11 48/3/11
f 41/10/3 45/6/3 43/1/3 47/1/3 48/10/3
f 53/1/1 54/2/1 60/2/1 57/1/1
f 51/3/2 52/4/2 56/5/2 55/6/2
f 55/6/1 56/5/1 54/2/1 53/1/1
f 56/5/10 52/7/10 59/7/10 60/2/10 54/2/10
f 58/3/1 59/4/1 52/4/1 51/3/1
f 57/8/12 60/9/12 59/4/12 58/3/12
f 51/10/3 55/6/3 53/1/3 57/1/3 58/10/3
f 63/1/1 64/2/1 70/2/1 67/1/1
f 61/3/1 62/4/1 66/5/1 65/6/1
f 65/6/7 66/5/7 64/2/7 63/1/7
f 66/5/10 62/7/10 69/7/10 70/2/10 64/2/10
f 68/3/1 69/4/1 62/4/1 61/3/1
f 67/8/13 70/9/13 69/4/13 68/3/13
f 61/10/3 65/6/3 63/1/3 67/1/3 68/10/3
f 73/1/1 74/2/1 80/2/1 77/1/1
f 71/3/7 72/4/7 76/5/7 75/6/7
f 75/6/5 76/5/5 74/2/5 73/1/5
f 76/5/10 72/7/10 79/7/10 80/2/10 74/2/10
f 78/3/1 79/4/1 72/4/1 71/3/1
f 77/8/14 80/9/14 79/4/14 78/3/14
f 71/10/3 75/6/3 73/1/3 77/1/3 78/10/3
f 83/1/1 84/2/1 90/2/1 87/1/1
f 81/3/2 82/4/2 86/5/2 85/6/2
f 85/6/10 86/5/10 84/2/10 83/1/10
f 86/5/5 82/7/5 89/7/5 90/2/5 84/2/5
f 88/3/1 89/4/1 82/4/1 81/3/1
f 87/8/15 90/9/15 89/4/15 88/3/15
f 81/10/1 85/6/1 83/1/1 87/1/1 88/10/1
f 98/6/1 99/5/1 96/5/1 95/6/1
f 96/5/2 99/5/2 100/11/2 92/11/2 94/2/2
f 95/6/10 96/5/10 94/2/10 93/1/10
f 93/1/5 94/2/5 92/12/5 91/13/5
f 91/8/1 92/9/1 100/9/1 97/8/1
f 99/5/16 98/6/16 97/8/16 100/9/16
f 97/14/7 98/6/7 95/6/7 93/1/7 91/14/7
f 108/6/1 109/5/1 106/5/1 105/6/1
f 106/5/7 109/5/7 110/11/7 102/11/7 104/2/7
f 105/6/10 106/5/10 104/2/10 103/1/10
f 103/1/1 104/2/1 102/12/1 101/13/1
f 101/8/1 102/9/1 110/9/1 107/8/1
f 109/5/17 108/6/17 107/8/17 110/9/17
f 107/14/2 108/6/2 105/6/2 103/1/2 101/14/2
f 113/1/1 114/2/1 120/2/1 117/1/1
f 111/3/7 112/4/7 116/5/7 115/6/7
f 115/6/10 116/5/10 114/2/10 113/1/10
f 116/5/1 112/7/1 119/7/1 120/2/1 114/2/1
f 118/3/1 119/4/1 112/4/1 111/3/1
f 117/8/18 120/9/18 119/4/18 118/3/18
f 111/10/5 115/6/5 113/1/5 117/1/5 118/10/5
